<svg width="153" height="33" viewBox="0 0 153 33" fill="none" xmlns="http://www.w3.org/2000/svg">
<path d="M0.0860856 18.8513C-0.226373 17.7172 0.31175 16.4018 1.70046 14.9053C3.10074 13.4088 5.00442 11.9005 7.41151 10.3806C9.83017 8.86071 12.4051 7.51032 15.1362 6.32946C17.8673 5.1369 20.4133 4.28341 22.7741 3.76898C25.1464 3.24285 26.9807 3.23116 28.2768 3.7339C29.4457 4.28341 29.9606 5.05506 29.8218 6.04885C29.6829 7.03096 29.11 8.04813 28.1032 9.10039C27.0964 10.1526 25.8755 11.0471 24.4405 11.7836C23.0171 12.5202 21.5937 12.906 20.1703 12.9411C19.7421 12.9294 19.5106 12.795 19.4759 12.5377C19.4412 12.2805 19.5222 12.0058 19.7189 11.7135C19.9157 11.4212 20.1413 11.2107 20.3959 11.0821C20.6621 10.9535 20.882 11.0003 21.0556 11.2224C21.0671 11.2458 21.0787 11.2692 21.0903 11.2926C21.1366 11.3627 21.1713 11.427 21.1944 11.4855C21.2176 11.5439 21.206 11.6141 21.1597 11.6959C21.1597 11.7193 21.1539 11.7369 21.1423 11.7486C21.1076 11.7953 21.0903 11.8304 21.0903 11.8538C21.0903 11.8772 21.125 11.8889 21.1944 11.8889C22.0855 11.7602 23.0807 11.3978 24.1801 10.8015C25.2911 10.1936 26.2863 9.48621 27.1659 8.67949C28.0454 7.86107 28.6009 7.08357 28.8323 6.34699C29.0638 5.59872 28.7571 5.02583 27.9123 4.62831C26.6856 4.16065 24.9555 4.18988 22.722 4.716C20.4885 5.24213 18.0756 6.08978 15.4834 7.25894C12.8911 8.42811 10.4435 9.73174 8.14058 11.1698C5.84922 12.5962 4.02075 13.9817 2.65519 15.3262C1.3012 16.6708 0.734149 17.7815 0.954027 18.6583C1.17391 19.1494 1.8914 19.4183 3.10652 19.4651C4.33321 19.5001 5.80871 19.4183 7.53302 19.2195C9.26891 19.0091 10.999 18.7694 12.7233 18.5005C15.1883 18.1147 17.0399 17.8984 18.2781 17.8516C18.5443 17.8399 18.9088 17.8516 19.3717 17.8867C19.8346 17.9101 20.2628 17.9978 20.6563 18.1498C21.0613 18.2901 21.3044 18.5297 21.3854 18.8688C21.4317 19.3014 21.1076 19.8392 20.4133 20.4822C19.7189 21.1136 18.8452 21.7742 17.7921 22.464C16.739 23.1421 15.6917 23.7735 14.6501 24.358C13.6202 24.9543 12.787 25.422 12.1505 25.761C11.8959 25.9013 11.6991 26.0066 11.5603 26.0767C11.1552 26.2989 10.675 26.5619 10.1195 26.8659C8.68449 27.6142 7.15113 28.4677 5.5194 29.4264C3.88767 30.3851 2.6957 31.262 1.94348 32.057C1.79304 32.2207 1.65995 32.2967 1.54423 32.285C1.4285 32.285 1.35907 32.2207 1.33592 32.0921C1.31278 31.9635 1.37064 31.8115 1.50951 31.6361C2.30802 30.7943 3.54628 29.8531 5.2243 28.8126C6.91389 27.7837 8.44725 26.8893 9.82439 26.1293C10.241 25.8955 10.5997 25.6909 10.9006 25.5155C11.0048 25.4571 11.1842 25.3577 11.4388 25.2174C12.2488 24.7614 13.3772 24.1067 14.8237 23.2532C16.2703 22.3997 17.5838 21.5637 18.7642 20.7453C19.9562 19.9269 20.5579 19.3423 20.5695 18.9916C20.5232 18.8396 20.3033 18.7402 19.9099 18.6934C19.5164 18.6466 19.1056 18.6291 18.6774 18.6408C18.2608 18.6525 17.9888 18.67 17.8615 18.6934C16.8431 18.7753 15.4371 18.974 13.6433 19.2897C11.8264 19.6171 9.93433 19.9035 7.96699 20.149C5.99966 20.3946 4.28114 20.453 2.81142 20.3244C1.34171 20.1841 0.433262 19.6931 0.0860856 18.8513Z" fill="black"/>
<path d="M29.0406 14.5896C29.3531 14.613 29.4977 14.7124 29.4746 14.8878C29.4514 15.0515 29.3357 15.221 29.1274 15.3964C28.9307 15.56 28.7166 15.6711 28.4851 15.7296C28.2653 15.7763 28.1032 15.7003 27.9991 15.5016C27.9759 15.4431 27.9817 15.3905 28.0164 15.3437C28.0627 15.2853 28.1206 15.2385 28.19 15.2034C28.271 15.1567 28.3405 15.1158 28.3983 15.0807C28.4446 15.069 28.4793 15.0573 28.5025 15.0456C28.5256 15.0339 28.5372 15.0222 28.5372 15.0105C28.5488 14.8819 28.6009 14.7767 28.6934 14.6949C28.786 14.613 28.9017 14.5779 29.0406 14.5896ZM25.1696 22.92C24.7183 22.92 24.4521 22.7738 24.3711 22.4815C24.2901 22.1892 24.3306 21.8209 24.4926 21.3767C24.643 20.9207 24.8571 20.4472 25.1349 19.9561C25.4126 19.4534 25.6904 18.9974 25.9681 18.5882C26.2458 18.1673 26.4657 17.8458 26.6277 17.6236C26.674 17.5418 26.7145 17.4833 26.7492 17.4483C26.6798 17.2612 26.7435 17.0566 26.9402 16.8344C27.1369 16.6006 27.3684 16.4311 27.6345 16.3259C27.9007 16.2089 28.0917 16.2265 28.2074 16.3785C28.2884 16.5071 28.3058 16.6298 28.2595 16.7468C28.2132 16.8637 28.1495 16.9747 28.0685 17.08C28.0454 17.1033 28.0222 17.1326 27.9991 17.1677C27.5593 17.799 27.0791 18.5063 26.5583 19.2897C26.0491 20.0613 25.6672 20.7102 25.4126 21.2364C25.2159 21.6923 25.3374 21.9437 25.7772 21.9905C26.2285 22.0372 26.8071 21.9671 27.513 21.78C28.2305 21.593 28.8844 21.3942 29.4746 21.1837C30.0764 20.9616 30.4351 20.8155 30.5508 20.7453C30.6781 20.6752 30.7765 20.6635 30.8459 20.7102C30.9269 20.757 30.9617 20.833 30.9501 20.9382C30.9385 21.0318 30.8575 21.1311 30.7071 21.2364C29.9548 21.6573 28.9712 22.0431 27.7561 22.3938C26.5525 22.7446 25.6904 22.92 25.1696 22.92Z" fill="black"/>
<path d="M32.8075 18.5005C32.3214 18.9916 31.8296 19.658 31.332 20.4998C30.8459 21.3299 30.5682 21.9729 30.4988 22.4289C30.4988 22.7329 30.7591 22.8147 31.2799 22.6744C31.8122 22.5458 32.4372 22.312 33.1547 21.9729C33.8837 21.6222 34.5318 21.2831 35.0988 20.9558C35.6775 20.6284 36.0073 20.4296 36.0883 20.3595C36.2619 20.2309 36.4008 20.1783 36.5049 20.2016C36.6091 20.225 36.6611 20.2835 36.6611 20.377C36.6611 20.4706 36.6033 20.5699 36.4875 20.6752C36.1635 20.9441 35.5849 21.324 34.7517 21.8151C33.9184 22.3061 33.0563 22.7212 32.1652 23.0603C31.2741 23.3993 30.5855 23.4695 30.0995 23.2707C29.6019 23.072 29.5382 22.4231 29.9086 21.324C30.221 20.4939 30.7533 19.6054 31.5056 18.6583C32.2578 17.6996 32.9406 17.1326 33.5539 16.9572C33.8316 16.9104 34.0573 16.9572 34.2309 17.0975C34.4161 17.2378 34.5318 17.4249 34.5781 17.6587C34.5318 17.9159 34.4218 18.1205 34.2483 18.2725C34.0747 18.4128 33.8953 18.4947 33.7101 18.518C33.525 18.5414 33.3919 18.4947 33.3109 18.3777C33.2993 18.3427 33.2877 18.3134 33.2762 18.2901C33.2646 18.2433 33.2472 18.2141 33.2241 18.2024C33.2009 18.179 33.1547 18.1907 33.0852 18.2374C33.0274 18.2842 32.9348 18.3719 32.8075 18.5005Z" fill="black"/>
<path d="M40.3239 14.5896C40.6363 14.613 40.781 14.7124 40.7578 14.8878C40.7347 15.0515 40.619 15.221 40.4106 15.3964C40.2139 15.56 39.9998 15.6711 39.7684 15.7296C39.5485 15.7763 39.3865 15.7003 39.2823 15.5016C39.2592 15.4431 39.265 15.3905 39.2997 15.3437C39.346 15.2853 39.4038 15.2385 39.4733 15.2034C39.5543 15.1567 39.6237 15.1158 39.6816 15.0807C39.7279 15.069 39.7626 15.0573 39.7857 15.0456C39.8089 15.0339 39.8204 15.0222 39.8204 15.0105C39.832 14.8819 39.8841 14.7767 39.9767 14.6949C40.0693 14.613 40.185 14.5779 40.3239 14.5896ZM36.4528 22.92C36.0015 22.92 35.7353 22.7738 35.6543 22.4815C35.5733 22.1892 35.6138 21.8209 35.7758 21.3767C35.9263 20.9207 36.1404 20.4472 36.4181 19.9561C36.6959 19.4534 36.9736 18.9974 37.2513 18.5882C37.5291 18.1673 37.749 17.8458 37.911 17.6236C37.9573 17.5418 37.9978 17.4833 38.0325 17.4483C37.963 17.2612 38.0267 17.0566 38.2234 16.8344C38.4202 16.6006 38.6516 16.4311 38.9178 16.3259C39.184 16.2089 39.3749 16.2265 39.4906 16.3785C39.5716 16.5071 39.589 16.6298 39.5427 16.7468C39.4964 16.8637 39.4328 16.9747 39.3518 17.08C39.3286 17.1033 39.3055 17.1326 39.2823 17.1677C38.8426 17.799 38.3623 18.5063 37.8415 19.2897C37.3323 20.0613 36.9505 20.7102 36.6959 21.2364C36.4991 21.6923 36.6206 21.9437 37.0604 21.9905C37.5117 22.0372 38.0903 21.9671 38.7963 21.78C39.5138 21.593 40.1676 21.3942 40.7578 21.1837C41.3596 20.9616 41.7183 20.8155 41.8341 20.7453C41.9614 20.6752 42.0597 20.6635 42.1292 20.7102C42.2102 20.757 42.2449 20.833 42.2333 20.9382C42.2217 21.0318 42.1407 21.1311 41.9903 21.2364C41.2381 21.6573 40.2544 22.0431 39.0393 22.3938C37.8358 22.7446 36.9736 22.92 36.4528 22.92Z" fill="black"/>
<path d="M34.6822 32.9514C34.5549 32.893 34.5029 32.7702 34.526 32.5831C34.5376 32.3961 34.6649 32.0804 34.9079 31.6361C35.1393 31.1918 35.5155 30.5429 36.0362 29.6895C36.5454 28.836 37.2282 27.7077 38.0846 26.3047C39.0567 24.738 40.2949 22.727 41.7994 20.2718C42.1928 19.5235 42.9971 18.1205 44.2122 16.0628C45.4273 13.9934 46.7813 11.7602 48.2742 9.36345C49.7671 6.95496 51.1268 4.86215 52.3535 3.08501C53.5918 1.29618 54.4366 0.296544 54.8879 0.0860934C55.5938 -0.124357 55.941 0.0510183 55.9294 0.612219C55.9294 1.16173 55.7327 1.87492 55.3392 2.7518C54.9573 3.61698 54.5465 4.4354 54.1068 5.20705C53.6786 5.96701 53.395 6.45806 53.2562 6.68021C53.2446 6.6919 53.2388 6.70359 53.2388 6.71528C51.6534 9.29914 49.9001 11.8947 47.9791 14.5019C46.0696 17.1092 44.5999 18.8571 43.57 19.7457C43.3732 19.886 43.2401 19.9737 43.1707 20.0087C43.1128 20.0438 43.0608 20.0789 43.0145 20.114C42.9798 20.149 42.9335 20.2075 42.8756 20.2893C42.8177 20.3712 42.7367 20.4998 42.6326 20.6752L35.7411 32.0219C35.7758 32.0219 35.7701 32.0804 35.7238 32.1973C35.6659 32.3259 35.5849 32.4604 35.4807 32.6007C35.3766 32.7527 35.2551 32.8637 35.1162 32.9339C34.9658 33.0157 34.8211 33.0216 34.6822 32.9514ZM44.6115 17.4483C44.4495 17.7055 44.3685 17.8516 44.3685 17.8867C44.38 17.9218 44.49 17.8107 44.6983 17.5535C45.844 16.0803 47.1227 14.309 48.5346 12.2396C49.9464 10.1702 51.2483 8.16505 52.4403 6.22423C53.8637 3.83913 54.6854 2.30167 54.9053 1.61186C55.1367 0.922049 54.8416 1.12081 54.02 2.20813C52.8627 3.82159 51.7228 5.54611 50.6003 7.38171C49.4777 9.2173 48.3783 11.0646 47.3021 12.9236C46.3879 14.4903 45.491 15.9985 44.6115 17.4483Z" fill="black"/>
<path d="M51.0516 14.5896C51.3641 14.613 51.5087 14.7124 51.4856 14.8878C51.4624 15.0515 51.3467 15.221 51.1384 15.3964C50.9417 15.56 50.7276 15.6711 50.4961 15.7296C50.2762 15.7763 50.1142 15.7003 50.0101 15.5016C49.9869 15.4431 49.9927 15.3905 50.0274 15.3437C50.0737 15.2853 50.1316 15.2385 50.201 15.2034C50.282 15.1567 50.3515 15.1158 50.4093 15.0807C50.4556 15.069 50.4903 15.0573 50.5135 15.0456C50.5366 15.0339 50.5482 15.0222 50.5482 15.0105C50.5598 14.8819 50.6118 14.7767 50.7044 14.6949C50.797 14.613 50.9127 14.5779 51.0516 14.5896ZM47.1806 22.92C46.7293 22.92 46.4631 22.7738 46.3821 22.4815C46.3011 22.1892 46.3416 21.8209 46.5036 21.3767C46.654 20.9207 46.8681 20.4472 47.1459 19.9561C47.4236 19.4534 47.7014 18.9974 47.9791 18.5882C48.2568 18.1673 48.4767 17.8458 48.6387 17.6236C48.685 17.5418 48.7255 17.4833 48.7602 17.4483C48.6908 17.2612 48.7545 17.0566 48.9512 16.8344C49.1479 16.6006 49.3794 16.4311 49.6455 16.3259C49.9117 16.2089 50.1027 16.2265 50.2184 16.3785C50.2994 16.5071 50.3167 16.6298 50.2705 16.7468C50.2242 16.8637 50.1605 16.9747 50.0795 17.08C50.0564 17.1033 50.0332 17.1326 50.0101 17.1677C49.5703 17.799 49.0901 18.5063 48.5693 19.2897C48.0601 20.0613 47.6782 20.7102 47.4236 21.2364C47.2269 21.6923 47.3484 21.9437 47.7881 21.9905C48.2395 22.0372 48.8181 21.9671 49.524 21.78C50.2415 21.593 50.8954 21.3942 51.4856 21.1837C52.0873 20.9616 52.4461 20.8155 52.5618 20.7453C52.6891 20.6752 52.7875 20.6635 52.8569 20.7102C52.9379 20.757 52.9727 20.833 52.9611 20.9382C52.9495 21.0318 52.8685 21.1311 52.7181 21.2364C51.9658 21.6573 50.9822 22.0431 49.7671 22.3938C48.5635 22.7446 47.7014 22.92 47.1806 22.92Z" fill="black"/>
<path d="M61.4495 20.2718C61.762 20.1081 61.9472 20.0964 62.005 20.2367C62.0629 20.377 61.953 20.5465 61.6752 20.7453C61.2355 21.0142 60.6684 21.2773 59.974 21.5345C59.2913 21.78 58.6779 21.856 58.134 21.7625C57.5901 21.6573 57.3066 21.213 57.2834 20.4296V20.3419C57.295 20.1783 57.2834 20.0964 57.2487 20.0964C57.214 20.0847 57.1156 20.1315 56.9536 20.2367C55.1599 21.4176 53.8406 22.1542 52.9958 22.4464C52.1626 22.7387 51.6707 22.7504 51.5203 22.4815C51.3351 22.1074 51.5666 21.5287 52.2146 20.7453C52.8627 19.9503 53.6959 19.1962 54.7143 18.483C55.7443 17.7698 56.7279 17.343 57.6653 17.2027C58.6027 17.0507 59.2623 17.4249 59.6442 18.3251C59.6789 18.442 59.6616 18.5473 59.5921 18.6408C59.5227 18.7343 59.4301 18.7986 59.3144 18.8337C59.1987 18.8688 59.0656 18.8454 58.9152 18.7636C58.7763 18.6817 58.6779 18.5823 58.6201 18.4654C58.6201 18.442 58.6258 18.4187 58.6374 18.3953C58.649 18.3719 58.6606 18.3485 58.6721 18.3251C58.6837 18.3017 58.6953 18.2784 58.7068 18.255C58.7184 18.2316 58.7184 18.2082 58.7068 18.1848C58.4175 17.7873 57.9199 17.7289 57.214 18.0095C56.5081 18.2901 55.7616 18.7285 54.9747 19.3248C54.1878 19.921 53.5223 20.4881 52.9784 21.0259C52.4345 21.552 52.1799 21.8736 52.2146 21.9905C52.2609 22.1074 52.7181 21.9145 53.586 21.4117C54.4539 20.909 55.8774 19.9678 57.8563 18.5882C57.9604 18.5297 58.0646 18.5122 58.1687 18.5356C58.2845 18.5473 58.377 18.6057 58.4465 18.711C58.5275 18.8513 58.5333 18.9916 58.4638 19.1319C58.0241 20.0906 57.972 20.681 58.3076 20.9031C58.6548 21.1253 59.1466 21.1428 59.7831 20.9558C60.4312 20.7687 60.9866 20.5407 61.4495 20.2718Z" fill="black"/>
<path d="M67.4557 12.7307C68.7981 11.2692 70.4703 9.9305 72.4724 8.71456C74.4744 7.49862 76.5691 6.43468 78.7563 5.52273C80.9435 4.59909 82.9745 3.86251 84.8492 3.313C85.0228 3.26623 85.1617 3.22531 85.2659 3.19024C85.3932 3.16685 85.4857 3.14347 85.5436 3.12009C85.6015 3.08501 85.6535 3.04409 85.6998 2.99732C85.7577 2.93887 85.8329 2.84533 85.9255 2.71672C85.9718 2.64657 86.0354 2.55889 86.1164 2.45366C86.209 2.31336 86.3595 2.16137 86.5678 1.99768C86.7761 1.834 86.967 1.74631 87.1406 1.73462C87.3258 1.72293 87.4299 1.89246 87.4531 2.24321C87.4531 2.26659 87.4531 2.28998 87.4531 2.31336C87.4531 2.45366 87.4646 2.5355 87.4878 2.55889C87.5109 2.58227 87.5688 2.57642 87.6614 2.54135C87.7077 2.52966 87.7771 2.51212 87.8697 2.48874C91.2026 1.72878 93.4129 1.65863 94.5007 2.27829C95.6001 2.89794 95.7679 3.95604 95.0042 5.45258C94.2519 6.94912 92.7707 8.64441 90.5603 10.5385C90.5256 10.5502 90.5024 10.5677 90.4909 10.5911C90.3057 10.7197 90.2131 10.8015 90.2131 10.8366C90.2247 10.8717 90.3809 10.8658 90.6818 10.8191C91.5845 10.6671 92.5392 10.6495 93.546 10.7665C94.5644 10.8834 95.4034 11.2283 96.063 11.8012C96.7343 12.3624 97.0004 13.2392 96.8616 14.4318C96.5259 16.2908 95.4266 18.1614 93.5634 20.0438C91.7002 21.9145 89.4725 23.6799 86.8802 25.3401C84.288 27.0121 81.7247 28.456 79.1903 29.6719C76.6674 30.8995 74.567 31.794 72.889 32.3552C72.6691 32.4136 72.5071 32.3844 72.403 32.2675C72.3104 32.1506 72.2641 31.9986 72.2641 31.8115C72.2641 31.6361 72.3162 31.4841 72.4203 31.3555C72.7328 31.0515 73.0973 30.8119 73.5139 30.6365C73.6528 30.5663 73.7975 30.5546 73.9479 30.6014C74.0983 30.6599 74.1967 30.7475 74.243 30.8645C75.7474 30.2916 77.6453 29.4205 79.9367 28.2514C82.2281 27.0822 84.5484 25.7201 86.8976 24.1651C89.2468 22.6218 91.2604 21.0025 92.9385 19.3072C94.628 17.6002 95.6291 15.9283 95.9415 14.2915C96.0457 13.4146 95.849 12.7833 95.3513 12.3974C94.8537 11.9999 94.2056 11.7719 93.4071 11.7135C92.6086 11.6433 91.8043 11.6667 90.9943 11.7836C90.1842 11.8889 89.5246 12.0116 89.0154 12.1519C88.7145 12.2221 88.4888 12.2981 88.3384 12.3799C88.1995 12.4617 88.0433 12.5728 87.8697 12.7131C87.7887 12.7716 87.6961 12.8417 87.5919 12.9236C87.4531 13.0288 87.0422 13.3152 86.3595 13.7829C85.6767 14.2506 84.9187 14.7182 84.0855 15.1859C83.2638 15.6419 82.5752 15.9225 82.0198 16.0277C81.4643 16.1212 81.2444 15.8523 81.3601 15.221C81.4758 14.8585 81.9214 14.4376 82.6967 13.9583C83.4837 13.4672 84.3169 13.0171 85.1964 12.6079C86.0875 12.187 86.7529 11.8947 87.1927 11.731C87.2737 11.7076 87.3489 11.6842 87.4183 11.6609C87.6035 11.579 87.7713 11.503 87.9218 11.4329C88.0722 11.3627 88.2458 11.2517 88.4425 11.0997C89.9238 9.98895 91.2199 8.84901 92.3309 7.67985C93.4534 6.49898 94.1594 5.47012 94.4487 4.59324C94.738 3.70467 94.3735 3.12593 93.3551 2.85702C92.3483 2.58811 90.4561 2.80441 87.6787 3.50591C87.5746 3.5293 87.4762 3.55268 87.3836 3.57606C87.1869 3.61114 87.0191 3.66375 86.8802 3.7339C86.7414 3.80405 86.6198 3.9385 86.5157 4.13726C84.9765 6.99004 83.3043 9.76681 81.499 12.4676C80.064 14.6422 78.6984 16.8578 77.4023 19.1143C77.2866 19.3365 77.2114 19.5294 77.1766 19.6931C77.1419 19.8567 77.1246 20.0029 77.1246 20.1315C77.1246 20.225 77.113 20.3186 77.0898 20.4121C77.0783 20.4939 77.0436 20.5758 76.9857 20.6576C76.8931 20.7628 76.7658 20.8798 76.6038 21.0084C76.4534 21.137 76.2856 21.2305 76.1004 21.289C75.9268 21.3357 75.7648 21.3007 75.6143 21.1837C75.5102 21.0785 75.4639 20.9675 75.4755 20.8505C75.487 20.7336 75.5276 20.6167 75.597 20.4998C78.8142 14.9345 82.014 9.67912 85.1964 4.73354C85.3121 4.53478 85.3584 4.39448 85.3353 4.31264C85.3237 4.21911 85.1559 4.21911 84.8319 4.31264C81.499 5.29474 78.2992 6.61006 75.2325 8.25858C74.6538 8.57426 73.7859 9.10039 72.6286 9.83696C71.4829 10.5618 70.3662 11.3861 69.2784 12.3098C68.1906 13.2217 67.4557 14.1103 67.0738 14.9755C66.7035 15.8406 67.0102 16.5655 67.9938 17.1501C68.179 17.267 68.2716 17.3839 68.2716 17.5009C68.2831 17.6061 68.2253 17.6821 68.098 17.7289C67.9823 17.7639 67.826 17.7347 67.6293 17.6412C66.4952 16.9747 65.9802 16.2089 66.0844 15.3437C66.1885 14.4786 66.6456 13.6075 67.4557 12.7307Z" fill="black"/>
<path d="M101.687 16.9923C102.335 17.1326 102.596 17.4132 102.468 17.8341C102.341 18.255 102.006 18.6934 101.462 19.1494C100.918 19.6054 100.351 19.9503 99.7605 20.1841C99.1818 20.4062 98.7594 20.3946 98.4933 20.149C98.3081 20.3829 98.094 20.6927 97.851 21.0785C97.6196 21.4527 97.4865 21.7859 97.4518 22.0782C97.4518 22.5224 97.7526 22.7154 98.3544 22.6569C98.9562 22.5984 99.6737 22.4055 100.507 22.0782C101.34 21.7508 102.104 21.4176 102.798 21.0785C103.493 20.7278 103.932 20.4881 104.118 20.3595C104.256 20.2659 104.384 20.225 104.499 20.2367C104.627 20.2484 104.679 20.3127 104.656 20.4296C104.644 20.5465 104.494 20.7102 104.204 20.9207C103.857 21.1662 103.267 21.517 102.434 21.9729C101.612 22.4172 100.738 22.803 99.8126 23.1304C98.8867 23.4578 98.0998 23.5689 97.4518 23.4636C96.8037 23.3584 96.4912 22.879 96.5144 22.0255C96.5722 21.4527 96.8963 20.7687 97.4865 19.9737C98.0767 19.1786 98.7594 18.483 99.5348 17.8867C100.322 17.2787 101.039 16.9806 101.687 16.9923ZM101.34 17.9568C101.236 17.9919 101.057 18.0913 100.802 18.255C100.547 18.407 100.275 18.5823 99.9861 18.7811C99.7084 18.9799 99.4654 19.1669 99.2571 19.3423C99.0488 19.5177 98.9273 19.6463 98.8925 19.7281C98.8578 19.81 98.962 19.81 99.205 19.7281C99.5406 19.5995 99.9514 19.3774 100.437 19.0617C100.924 18.7343 101.294 18.4362 101.548 18.1673C101.664 18.0387 101.71 17.9568 101.687 17.9218C101.676 17.8867 101.56 17.8984 101.34 17.9568Z" fill="black"/>
<path d="M102.85 22.7621C103.082 22.1892 103.435 21.4936 103.909 20.6752C104.372 19.8567 104.823 19.0734 105.263 18.3251C105.506 17.9276 105.715 17.5827 105.888 17.2904C105.819 17.1969 105.784 17.0975 105.784 16.9923C105.784 16.8871 105.819 16.7935 105.888 16.7117C106.189 16.3843 106.409 16.2031 106.548 16.168L106.582 16.1505C106.687 16.1154 106.779 16.1154 106.86 16.1505C107.034 16.2089 107.144 16.32 107.19 16.4837C107.19 16.4954 107.19 16.5129 107.19 16.5363C107.19 16.548 107.19 16.5597 107.19 16.5714C107.19 16.6766 107.161 16.7818 107.103 16.8871C106.675 17.5886 106.195 18.3894 105.662 19.2897C105.142 20.1783 104.679 20.985 104.274 21.7099C104.552 21.441 104.997 21.0551 105.61 20.5524C106.235 20.038 106.854 19.5644 107.468 19.1319C108.093 18.6876 108.538 18.4537 108.804 18.4304C109.221 18.442 109.458 18.6116 109.516 18.9389C109.574 19.2546 109.574 19.6112 109.516 20.0087C109.481 20.3127 109.476 20.5758 109.499 20.7979C109.522 21.0084 109.638 21.1136 109.846 21.1136C110.066 21.1136 110.436 20.9382 110.957 20.5875C111.107 20.4939 111.212 20.4706 111.269 20.5173C111.339 20.5641 111.362 20.6459 111.339 20.7628C111.316 20.8681 111.252 20.9558 111.148 21.0259C110.106 21.6923 109.418 21.8209 109.082 21.4117C108.747 20.9908 108.66 20.2776 108.822 19.2722C108.579 19.2955 108.214 19.506 107.728 19.9035C107.242 20.2893 106.716 20.7395 106.149 21.2539C105.651 21.6982 105.176 22.1074 104.725 22.4815C104.274 22.8557 103.892 23.1246 103.579 23.2883C103.348 23.3935 103.151 23.3935 102.989 23.2883C102.827 23.183 102.781 23.0077 102.85 22.7621Z" fill="black"/>
<path d="M111.113 23.0427C111.067 23.0544 111.021 23.0603 110.974 23.0603C110.685 23.107 110.477 23.1596 110.349 23.2181C110.222 23.2883 110.095 23.4286 109.967 23.639C109.192 24.9017 108.48 26.0709 107.832 27.1465C106.988 28.5378 106.062 30.0519 105.055 31.6887C104.87 32.0746 104.633 32.3376 104.343 32.4779C104.054 32.6299 103.828 32.6358 103.666 32.4955C103.493 32.3668 103.487 32.0687 103.649 31.601C103.684 31.4724 103.724 31.3789 103.77 31.3204C103.817 31.2737 103.863 31.2444 103.909 31.2328C103.956 31.2328 104.008 31.2386 104.065 31.2503C104.112 31.2503 104.158 31.2444 104.204 31.2328C104.251 31.2328 104.297 31.2094 104.343 31.1626C105.165 29.8414 105.917 28.6314 106.6 27.5323C107.271 26.445 108.023 25.2408 108.857 23.9196C108.891 23.8611 108.926 23.8085 108.961 23.7618C109.065 23.6098 109.1 23.5162 109.065 23.4812C109.03 23.4578 108.868 23.4812 108.579 23.5513C105.905 24.1125 104.094 24.6036 103.145 25.0245C102.196 25.4454 101.774 25.8195 101.878 26.1469C101.925 26.3339 102.046 26.5268 102.243 26.7256C102.44 26.9244 102.665 27.1231 102.92 27.3219C103.279 27.5791 103.585 27.8539 103.84 28.1461C104.094 28.4384 104.181 28.7483 104.1 29.0756C104.065 29.2159 103.996 29.3387 103.892 29.4439C103.776 29.5608 103.637 29.5959 103.475 29.5492C103.406 29.5141 103.383 29.479 103.406 29.4439C103.417 29.4089 103.446 29.3738 103.493 29.3387C103.516 29.327 103.545 29.3036 103.579 29.2685C103.603 29.2452 103.62 29.2218 103.631 29.1984C103.655 28.8944 103.539 28.6021 103.284 28.3215C103.03 28.0409 102.729 27.7603 102.382 27.4797C102.081 27.2459 101.815 27.0062 101.583 26.7607C101.352 26.5268 101.213 26.2813 101.167 26.0241C101.074 25.6266 101.23 25.2583 101.635 24.9192C102.04 24.5919 102.816 24.2587 103.961 23.9196C105.095 23.5922 106.721 23.2356 108.839 22.8498C109.082 22.803 109.267 22.7621 109.395 22.727C109.51 22.692 109.609 22.6335 109.69 22.5517C109.759 22.4581 109.84 22.3237 109.933 22.1483C110.187 21.704 110.459 21.2539 110.749 20.7979C110.841 20.6459 110.934 20.4998 111.026 20.3595C111.026 20.2192 111.061 20.0964 111.131 19.9912C111.212 19.886 111.298 19.7924 111.391 19.7106C115.071 13.8881 117.634 9.9948 119.081 8.0306C119.22 7.83184 119.388 7.674 119.584 7.55708C119.793 7.42847 119.989 7.38755 120.174 7.43432C120.36 7.48109 120.498 7.66815 120.591 7.99552C120.406 9.2933 119.775 10.7489 118.699 12.3624C117.623 13.9758 116.46 15.4957 115.21 16.9221C113.972 18.3368 113.005 19.3949 112.311 20.0964C112.253 20.1549 112.201 20.2133 112.155 20.2718C111.981 20.4238 111.819 20.6109 111.669 20.833C111.518 21.1019 111.385 21.3357 111.269 21.5345C111.084 21.8619 110.957 22.0957 110.887 22.236C110.818 22.3646 110.812 22.4406 110.87 22.464C110.928 22.4757 111.044 22.464 111.217 22.4289C111.264 22.4289 111.31 22.4231 111.356 22.4114C112.132 22.2828 112.959 22.16 113.838 22.0431C114.834 21.9028 115.922 21.7391 117.102 21.552C117.252 21.5287 117.362 21.5462 117.432 21.6046C117.501 21.6631 117.524 21.7333 117.501 21.8151C117.478 21.8969 117.391 21.9554 117.241 21.9905C114.868 22.3646 112.826 22.7154 111.113 23.0427ZM115.939 14.081C114.434 16.3259 114.452 16.4662 115.991 14.5019C117.391 12.7248 118.358 11.3744 118.89 10.4508C119.434 9.51544 119.474 9.28745 119.011 9.76681C118.56 10.2345 117.536 11.6726 115.939 14.081Z" fill="black"/>
<path d="M120.122 22.9726C119.312 23.7676 118.549 24.0599 117.831 23.8495C117.125 23.639 116.784 23.0193 116.807 21.9905C116.83 20.9499 117.553 19.5937 118.977 17.9218C119.521 17.3255 119.955 16.9806 120.279 16.8871C120.545 16.7935 120.747 16.8052 120.886 16.9221C121.025 17.0274 121.031 17.2436 120.904 17.571C120.661 17.8282 120.464 17.9861 120.313 18.0445C120.163 18.103 120.041 18.1264 119.949 18.1147C119.903 18.1147 119.856 18.1205 119.81 18.1322C119.775 18.1322 119.74 18.1556 119.706 18.2024C118.606 19.5235 117.935 20.5875 117.692 21.3942C117.461 22.2009 117.495 22.7446 117.796 23.0252C118.097 23.3175 118.502 23.3292 119.011 23.0603C119.243 22.92 119.503 22.6569 119.793 22.2711C120.082 21.8852 120.319 21.5053 120.504 21.1311C120.539 21.0727 120.568 21.0259 120.591 20.9908C120.626 20.9441 120.643 20.9031 120.643 20.8681C120.643 20.833 120.614 20.7921 120.556 20.7453C120.348 20.5349 120.169 20.2601 120.018 19.921C119.868 19.5703 119.839 19.2546 119.931 18.974C120.024 18.787 120.198 18.7051 120.452 18.7285C120.707 18.7519 120.95 18.8863 121.181 19.1319C121.413 19.3774 121.534 19.7457 121.546 20.2367C121.569 20.5875 121.69 20.833 121.91 20.9733C122.13 21.1019 122.373 21.1487 122.639 21.1136C122.906 21.0668 123.125 20.9616 123.299 20.7979C123.449 20.6576 123.554 20.6225 123.612 20.6927C123.681 20.7512 123.675 20.8564 123.594 21.0084C123.513 21.1604 123.334 21.3007 123.056 21.4293C122.616 21.6046 122.275 21.669 122.032 21.6222C121.8 21.5754 121.627 21.5111 121.511 21.4293C121.43 21.3591 121.355 21.3299 121.285 21.3416C121.216 21.3416 121.147 21.4117 121.077 21.552C120.961 21.7625 120.811 22.008 120.626 22.2886C120.452 22.5692 120.284 22.7972 120.122 22.9726Z" fill="black"/>
<path d="M126.198 15.221C125.874 14.8235 125.689 14.4376 125.642 14.0635C125.619 13.5023 125.787 13.1048 126.146 12.871C126.505 12.6371 126.933 12.7131 127.43 13.0989C127.616 13.3094 127.731 13.5725 127.778 13.8881C127.835 14.2038 127.783 14.5663 127.621 14.9755C127.552 15.1158 127.523 15.2268 127.535 15.3087C127.558 15.3788 127.645 15.449 127.795 15.5191C128.709 15.9283 129.34 16.4018 129.687 16.9397C130.034 17.4775 129.878 18.1848 129.218 19.0617C128.871 19.5177 128.541 20.0789 128.229 20.7453C127.916 21.4 127.818 21.9788 127.934 22.4815C128.073 22.8089 128.437 22.8849 129.027 22.7095C129.629 22.5458 130.289 22.2594 131.006 21.8502C131.724 21.441 132.343 21.0434 132.864 20.6576C133.026 20.5173 133.153 20.453 133.246 20.4647C133.338 20.4647 133.385 20.5115 133.385 20.605C133.396 20.6985 133.35 20.7979 133.246 20.9031C131.707 22.2711 130.324 23.0953 129.097 23.3759C127.87 23.6565 127.135 23.3935 126.892 22.5867C126.649 21.78 127.228 20.4355 128.628 18.5531C129.022 18.0036 129.08 17.5593 128.802 17.2203C128.524 16.8695 128.102 16.5363 127.535 16.2206C127.511 16.2089 127.494 16.1972 127.483 16.1856C127.367 16.1037 127.263 16.0745 127.17 16.0979C127.089 16.1096 126.979 16.2148 126.84 16.4135C126.701 16.6006 126.597 16.7351 126.528 16.8169C126.343 17.0507 126.181 17.1793 126.042 17.2027C125.903 17.2144 125.799 17.1677 125.729 17.0624C125.671 16.9572 125.654 16.8403 125.677 16.7117C125.712 16.5948 125.77 16.5305 125.851 16.5188C125.932 16.5071 126.1 16.3551 126.354 16.0628C126.47 15.8991 126.499 15.753 126.441 15.6243C126.395 15.484 126.314 15.3496 126.198 15.221ZM127.031 14.537C127.077 14.2447 127.049 13.9875 126.944 13.7654C126.84 13.5432 126.725 13.4322 126.597 13.4322C126.47 13.4205 126.412 13.6017 126.424 13.9758C126.435 14.0343 126.47 14.1337 126.528 14.274C126.586 14.4026 126.649 14.5253 126.719 14.6422C126.8 14.7592 126.875 14.8176 126.944 14.8176C126.968 14.8176 126.979 14.8059 126.979 14.7825C126.991 14.7475 126.996 14.7124 126.996 14.6773C127.008 14.6306 127.02 14.5838 127.031 14.537Z" fill="black"/>
<path d="M140.102 18.0445C139.547 18.6057 138.829 19.2897 137.95 20.0964C137.07 20.8915 136.162 21.6514 135.225 22.3763C134.287 23.0895 133.466 23.5864 132.76 23.867C132.042 24.1593 131.579 24.0657 131.371 23.5864C131.244 23.1538 131.469 22.464 132.048 21.517C132.615 20.5699 133.379 19.5937 134.339 18.5882C135.3 17.5827 136.312 16.7643 137.377 16.1329C138.442 15.5016 139.408 15.2794 140.276 15.4665C140.507 15.5367 140.664 15.6068 140.745 15.677C140.803 15.712 140.855 15.7413 140.901 15.7646C140.959 15.7763 141.022 15.7646 141.092 15.7296C141.161 15.6828 141.254 15.601 141.37 15.484C141.821 15.0631 142.191 14.6773 142.481 14.3266C142.77 13.9758 143.077 13.5257 143.401 12.9762C144.384 11.3043 145.165 10.024 145.744 9.13546C146.531 7.90783 147.428 6.72697 148.435 5.59288C149.441 4.45879 150.321 3.58191 151.073 2.96225C151.281 2.78687 151.53 2.65826 151.82 2.57642C152.109 2.48289 152.369 2.4712 152.601 2.54135C152.832 2.59981 152.965 2.77518 153 3.06747C152.954 3.44161 152.572 4.16649 151.854 5.24213C150.732 6.89066 149.528 8.42811 148.244 9.8545C146.971 11.2692 145.761 12.5085 144.616 13.5725C144.141 14.0401 143.777 14.4435 143.522 14.7825C143.267 15.1099 142.967 15.5717 142.619 16.168C141.439 18.1439 140.259 20.0906 139.078 22.008C137.909 23.9254 136.926 25.5214 136.127 26.7958C135.34 28.0818 134.924 28.7541 134.877 28.8126C134.796 28.9412 134.698 29.0172 134.582 29.0406C134.478 29.0639 134.403 29.0347 134.357 28.9529C134.31 28.871 134.339 28.7366 134.443 28.5495C135.103 27.392 135.925 25.9423 136.908 24.2002C138.367 21.6163 139.564 19.5177 140.502 17.9042C140.745 17.5184 140.837 17.343 140.779 17.3781C140.722 17.4132 140.548 17.5769 140.259 17.8692C140.212 17.9276 140.16 17.9861 140.102 18.0445ZM147.463 9.38099C148.782 8.00137 150.008 6.48145 151.143 4.82123C151.409 4.41202 151.565 4.13726 151.611 3.99696C151.658 3.84497 151.629 3.78651 151.525 3.82159C151.432 3.84497 151.293 3.92681 151.108 4.06711C150.934 4.19572 150.755 4.34187 150.57 4.50555C150.385 4.66924 150.234 4.80954 150.118 4.92645C149.505 5.58119 148.828 6.37622 148.087 7.31156C147.358 8.2352 146.739 9.08869 146.23 9.87204C145.848 10.4917 145.611 10.9126 145.518 11.1347C145.426 11.3452 145.437 11.4153 145.553 11.3452C145.669 11.2633 145.848 11.0938 146.091 10.8366C146.346 10.5794 146.618 10.2929 146.907 9.97726C147.092 9.76681 147.277 9.56805 147.463 9.38099ZM140.154 16.168C139.356 16.0745 138.419 16.4135 137.342 17.1852C136.266 17.9451 135.253 18.8396 134.305 19.8684C133.367 20.8856 132.708 21.7333 132.326 22.4114C132.152 22.727 132.054 22.9609 132.031 23.1129C131.996 23.2766 132.117 23.2824 132.395 23.1304C133.228 22.6627 134.362 21.8268 135.797 20.6225C137.232 19.4066 138.719 18.0562 140.259 16.5714C140.374 16.4662 140.426 16.3843 140.415 16.3259C140.403 16.2557 140.316 16.2031 140.154 16.168Z" fill="black"/>
</svg>
